<svg xmlns="http://www.w3.org/2000/svg" viewBox="0 0 48 48" width="48px" height="48px">
  <!-- HTML5 -->
  <polygon points="8,5 12,43 24,47 36,43 40,5" fill="#E44D26"/>
  <polygon points="24,8 24,44 34,40 37,8" fill="#F16529"/>
  <polygon points="24,25 20,25 19,20 24,20 24,16 15,16 17,30 24,30" fill="#EBEBEB"/>
  <polygon points="24,30 24,25 28,25 27,35 24,36 24,40 33,37 35,16 24,16 24,20 30,20 29,25 24,25" fill="#FFFFFF"/>
  
  <!-- CSS3 -->
  <circle cx="38" cy="38" r="8" fill="#1572B6"/>
  <path d="M34,34 L42,34 L41,40 L38,41 L35,40 L34,34 Z" fill="#33A9DC"/>
  <path d="M38,36 L40,36 L40,38 L38,38 L36,38 L36,40 L38,40 L40,40 L40,42 L38,43 L34,41 L34,39 L36,39 L36,37 L38,37 Z" fill="#FFFFFF"/>
</svg>