<svg xmlns="http://www.w3.org/2000/svg" viewBox="0 0 48 48" width="48px" height="48px">
    <!-- Airplane -->
    <path d="M42,24 L28,18 L28,12 C28,10.9 27.1,10 26,10 C24.9,10 24,10.9 24,12 L24,18 L10,24 L10,28 L24,26 L24,34 L20,36 L20,39 L26,38 L32,39 L32,36 L28,34 L28,26 L42,28 L42,24 Z"
          fill="#00BCD4"/>
    <!-- Globe -->
    <circle cx="12" cy="12" r="8" fill="#4CAF50" opacity="0.7"/>
    <path d="M12,4 C16.4,4 20,7.6 20,12 C20,16.4 16.4,20 12,20 C7.6,20 4,16.4 4,12 C4,7.6 7.6,4 12,4 Z M12,6 C8.7,6 6,8.7 6,12 C6,15.3 8.7,18 12,18 C15.3,18 18,15.3 18,12 C18,8.7 15.3,6 12,6 Z"
          fill="#388E3C"/>
    <path d="M12,6 C15.3,6 18,8.7 18,12 L6,12 C6,8.7 8.7,6 12,6 Z" fill="#8BC34A"/>
</svg>